<svg width="52" height="40" viewBox="0 0 52 40" fill="none" xmlns="http://www.w3.org/2000/svg">
<path d="M10.417 26.041C11.6119 29.1626 13.7049 31.8613 16.4326 33.793C19.1603 35.7246 22.4001 36.8038 25.7412 36.8945C29.0823 36.9852 32.3756 36.0825 35.2041 34.3018C37.2575 33.0089 38.9968 31.2931 40.3184 29.2832L41.832 32.3105C40.4331 34.0867 38.7363 35.6234 36.8027 36.8408C33.4722 38.9377 29.5943 40.0003 25.6602 39.8936C21.726 39.7867 17.9111 38.5156 14.6992 36.2412C11.4873 33.9667 9.02223 30.7899 7.61523 27.1143L10.417 26.041Z" fill="#00AAAA"/>
<path d="M26.6816 0.106464C30.6666 0.203023 34.5308 1.49418 37.7734 3.81252C41.0161 6.13096 43.4878 9.36978 44.8682 13.1094L42.0547 14.1485C40.8825 10.9727 38.783 8.22187 36.0293 6.25295C33.2756 4.28417 29.9935 3.18757 26.6094 3.10549C23.2252 3.02358 19.8937 3.95984 17.0479 5.79299C15.0574 7.07527 13.3699 8.75599 12.0811 10.7158L10.5664 7.68752C11.9222 5.96586 13.5604 4.47035 15.4229 3.27053C18.7739 1.11194 22.6967 0.0100033 26.6816 0.106464Z" fill="#00AAAA"/>
<path d="M34.1725 12.1003L51.8268 12.1003L42.9996 29.7546L34.1725 12.1003ZM46.9733 15.1003L39.027 15.1003L43.0006 23.0465L46.9733 15.1003Z" fill="#00AAAA"/>
<path d="M18.2275 27.8999H0.573242L9.40039 10.2456L18.2275 27.8999ZM5.42676 24.8999H13.373L9.39941 16.9536L5.42676 24.8999Z" fill="#00AAAA"/>
</svg>
